<?xml version="1.0" encoding="utf-8"?>
<!-- Generator: Adobe Illustrator 26.1.0, SVG Export Plug-In . SVG Version: 6.00 Build 0)  -->
<svg version="1.1" id="Capa_1" xmlns="http://www.w3.org/2000/svg" xmlns:xlink="http://www.w3.org/1999/xlink" x="0px" y="0px"
	 viewBox="0 0 222.2 93.3" style="enable-background:new 0 0 222.2 93.3;" xml:space="preserve">
<style type="text/css">
	.st0{fill:#921913;}
	.st1{fill:#E64011;}
	.st2{fill:#FFFFFF;}
	.st3{clip-path:url(#SVGID_00000034782831191613448060000000393095548941644936_);fill:#F29100;}
	.st4{clip-path:url(#SVGID_00000125562414772725628730000013181944750744982430_);fill:#BD1717;}
	.st5{clip-path:url(#SVGID_00000040547753246637027680000013242436314659180677_);fill:#BD1717;}
	.st6{clip-path:url(#SVGID_00000001664908589316374960000002501091389803854264_);fill:#E20613;}
	.st7{fill:#F29100;}
</style>
<path class="st0" d="M34.8,29.2h46.6c0,0,27.4-2,27.3,23.9c0,0,0.7,18.9-24.8,26.5l-24.3,5.7l7.8-8.7l-31.1,7l10.4-12.3
	c0,0,0.9-0.7,0.3-1.6c-0.3-0.4-0.9-0.4-1.8,0.1l-22.7,9.5h-3.4V29H27l18,11.9c0,0,1,0.5,1.6-0.1c0.6-0.6-0.6-1.7-0.6-1.7L34.8,29.2z
	"/>
<path class="st1" d="M8.4,4.4h16.1c0,0,9.5-0.7,9.5,8.3c0,0,0.2,6.5-8.6,9.2l-8.4,2l2.7-3L8.9,23.2l3.6-4.3c0,0,0.3-0.3,0.1-0.5
	c-0.1-0.1-0.3-0.1-0.6,0l-7.9,3.3H3V4.3h2.7L12,8.4c0,0,0.3,0.2,0.6,0c0.2-0.2-0.2-0.6-0.2-0.6L8.4,4.4z"/>
<path class="st2" d="M27.2,13.4c-1.4,0-2.3-1.1-2.3-2.5c0-1.3,1-2.4,2.3-2.4c1.4,0,2.3,1.2,2.3,2.5C29.5,12.3,28.5,13.4,27.2,13.4
	 M27.1,7c-2.3,0-4,1.7-4,4c0,2.3,1.8,3.9,4,3.9c2.3,0,4-1.7,4-4S29.4,7,27.1,7"/>
<g>
	<g>
		<defs>
			<path id="SVGID_1_" d="M19.1,29v50.3h3.4l22.7-9.5c0.9-0.5,1.5-0.5,1.8-0.1c0.6,0.8-0.3,1.6-0.3,1.6L36.3,83.6l31.1-7l-7.8,8.7
				l24.3-5.7c25.5-7.6,24.8-26.5,24.8-26.5c0.1-25.9-27.3-23.9-27.3-23.9H34.8l11.2,9.9c0,0,1.3,1.1,0.6,1.7
				C46,41.4,45,40.9,45,40.9L27,29H19.1z"/>
		</defs>
		<clipPath id="SVGID_00000127007821735748103130000012545304940275323047_">
			<use xlink:href="#SVGID_1_"  style="overflow:visible;"/>
		</clipPath>
		<path style="clip-path:url(#SVGID_00000127007821735748103130000012545304940275323047_);fill:#F29100;" d="M92.7,82.7
			c6.1-11.3,6.9-26.4,4.8-40c-0.1-0.5-0.8-0.9-1.2-0.6c-10.4,8.3-15.7,26.9-17,40.6c-0.1,0.7,0.7,1.1,1.2,0.8
			c12-6.8,11.1-21.8,12.6-34.8c0.8-7,0.8-18.8-9.1-19.8C74.7,27.9,67.1,41,63.2,47C57.6,55.6,51.7,66,50,76.7
			c-0.1,0.6,0.8,1.2,1.2,0.8c9.2-7.6,10.2-22.2,11.6-34.1c0.9-7.4,5.7-20.3,0.3-27.7c-5.1-7-16.9,7.5-18.8,10.1
			c-8,10.6-12.9,22.3-7.3,36.7c0.2,0.5,1.8,1.8,2.1,1.6c12.1-6.3,17-26.4,15.1-40.3c-0.1-1-1.6-0.9-1.4,0.1
			c1.9,13.7-2.9,28.5-11.9,37.2c-3.7,3.6-4.5-7.2-4.5-8c0-4.9,1.3-9.5,2.7-13.9c3.1-9.5,9.7-19.3,18.9-23.1c8-3.3,4.9,15.8,4.6,17.9
			c-0.8,5.4-1.4,10.9-2.1,16.4C59.3,58.7,57.6,67,53,73.6c-3.7,5.2-0.6-0.6,0-2.4c0.9-2.9,2.2-5.6,3.4-8.3
			C61.2,52,67.7,40.6,77,33.2c2.1-1.7,4.5-2.8,7.3-2.9c8.3-0.5,7.7,11.5,7.5,15.5c-0.3,6.7-1.4,13.6-2.1,20.2
			c-0.7,6.2-3.3,11.1-7.8,14.8c-2.5,2,0.4-6.3,0.5-6.7c1.7-7.2,4.4-14,7.5-20.5c1.5-3.1,3.2-5.9,5.3-8.5c1.5-1.8,1.9,9,1.9,10.6
			c0,9.2-1.5,18.5-5.7,26.2C90.9,82.8,92.3,83.4,92.7,82.7"/>
	</g>
	<g>
		<defs>
			<path id="SVGID_00000080923610931689430530000005402334820652828326_" d="M19.1,29v50.3h3.4l22.7-9.5c0.9-0.5,1.5-0.5,1.8-0.1
				c0.6,0.8-0.3,1.6-0.3,1.6L36.3,83.6l31.1-7l-7.8,8.7l24.3-5.7c25.5-7.6,24.8-26.5,24.8-26.5c0.1-25.9-27.3-23.9-27.3-23.9H34.8
				l11.2,9.9c0,0,1.3,1.1,0.6,1.7C46,41.4,45,40.9,45,40.9L27,29H19.1z"/>
		</defs>
		<clipPath id="SVGID_00000047033427533254094190000003593455327034545568_">
			<use xlink:href="#SVGID_00000080923610931689430530000005402334820652828326_"  style="overflow:visible;"/>
		</clipPath>
		<path style="clip-path:url(#SVGID_00000047033427533254094190000003593455327034545568_);fill:#BD1717;" d="M99.5,82.2
			c-1.9,2-2.1-1.4-2.3-0.7c-1.5,3.4-3.3,7.2-3.9,10.9c0.8-5.4,2.9-11.9,4.6-17.6c0.8-2.7,2-5.4,2.6-8.1c2.4-12.5-2.6-8.8-4.9-5.8
			c-2.9,3.7-5.3,7.9-7.1,12.2c-2.2,5.3-3,10.8,1,2.2c4.5-9.6,5.6-20.4,6.6-30.9c0.1-0.9,1.5-0.5,1.4,0.4
			C96,57.3,95.4,73.7,85.6,82.5c-0.4,0.4-1.2,0.2-1.2-0.5c0-6.2,7.3-25.2,14.8-25.3c8.2-0.1-4,33.4-6.1,36.6
			c-0.4,0.7-1.4,0.3-1.3-0.5c0.4-2.8,3.5-10,7.5-11.6L99.5,82.2z"/>
	</g>
	<g>
		<defs>
			<path id="SVGID_00000008855145822798206500000001865799819670814382_" d="M19.1,29v50.3h3.4l22.7-9.5c0.9-0.5,1.5-0.5,1.8-0.1
				c0.6,0.8-0.3,1.6-0.3,1.6L36.3,83.6l31.1-7l-7.8,8.7l24.3-5.7c25.5-7.6,24.8-26.5,24.8-26.5c0.1-25.9-27.3-23.9-27.3-23.9H34.8
				l11.2,9.9c0,0,1.3,1.1,0.6,1.7C46,41.4,45,40.9,45,40.9L27,29H19.1z"/>
		</defs>
		<clipPath id="SVGID_00000175311210921805015580000017658951703247944577_">
			<use xlink:href="#SVGID_00000008855145822798206500000001865799819670814382_"  style="overflow:visible;"/>
		</clipPath>
		<path style="clip-path:url(#SVGID_00000175311210921805015580000017658951703247944577_);fill:#BD1717;" d="M63.9,75.8
			c4.8-10.2,12.2-18.9,16-29.6c0.4-1.2,4.2-16.1-2-14c-7.4,2.6-11.6,16.5-14.5,23c-2.2,4.8-4.2,9-7.2,13.3c-2.2,3.3-5,7.7-2.7,11.7
			c0.2,0.4,0.8,0.5,1.1,0.1c11.5-13.6,15.3-31.2,17.9-48.7c0.1-0.7-0.7-1.2-1.2-0.7C60,42.1,45.6,52.3,50.8,70.5
			c0.1,0.4,0.5,0.6,0.9,0.5c14.6-3.6,34.3-37.6,15-47.1c-9.9-4.8-21.5,8.6-26.9,14.7c-7.1,7.9-20.4,20.5-18.5,32.2
			c0.1,0.4,0.5,0.5,0.9,0.5C40.4,67.9,52,44.6,44.4,26.4c-4-9.7-24.4,21.3-25.7,24.9c-0.3,0.8,0.9,1.1,1.3,0.5
			c2.7-4.1,16.6-20,9.1-25C20.6,21,10.8,37.3,9.7,44.1c-0.1,0.6,0.5,1.1,1,0.8c4.9-2.8,7.2-7,9.3-12.3c0.3-0.8-0.9-1.5-1.2-0.7
			c-0.6,1.7-1.3,3.3-2.1,4.8c0-0.1-8,12.1-4.4,3.7c1.6-3.8,4.4-7.2,7.2-10.1c2.8-3.7,6.1-3.4,10.1,0.7c0.3,2.8-1.6,5.8-2.7,8.1
			c-1.7,3.3-3.9,6.3-6,9.2c-3.9,5.4,2.4-3.5,3.6-5.3c3.1-5,7.5-9.2,11.6-13.2c9.1-8.8,8.8,5.8,8.2,11.5c-0.6,5.5-2.9,10.5-5.7,15.1
			c-1.5,2.2-3.2,4.3-5.1,6.1c1.1-1.1-11.8,10.6-10.9,2.7c0.6-5.5,6-10.1,9.2-14.3c4.4-5.8,8.9-11.5,14-16.7
			c6.7-6.8,21.2-16.5,26.7-2.2c3.2,8.5-2.7,19.1-7.1,25.8c-2.4,3.7-5.5,6.9-9,9.5c-6.7,5-5.8-5-4.9-9.7c1.8-9.4,11-16.4,17.5-22.4
			c4.3-4,0.7,5.5,0.3,7.9c-1,5.2-2.4,10.2-4,15.2c-2.2,6.8-3.4,9.3-7.6,15c-1.3,1.3-2.3,1.2-2.5,0c0.7-1.4,1.5-2.8,2.4-4.1
			c1-1.7,2.2-3.2,3.3-4.9c2.8-4,4.3-9.5,6.3-13.9c1.5-3.1,3-6.1,4.7-9.1c0.5-1,7.8-12.6,8.6-3.6c1.1,13-12.6,26.4-17.7,37.3
			C62.3,76,63.6,76.7,63.9,75.8"/>
	</g>
	<g>
		<defs>
			<path id="SVGID_00000016794060273746385850000017360342729463093133_" d="M19.1,29v50.3h3.4l22.7-9.5c0.9-0.5,1.5-0.5,1.8-0.1
				c0.6,0.8-0.3,1.6-0.3,1.6L36.3,83.6l31.1-7l-7.8,8.7l24.3-5.7c25.5-7.6,24.8-26.5,24.8-26.5c0.1-25.9-27.3-23.9-27.3-23.9H34.8
				l11.2,9.9c0,0,1.3,1.1,0.6,1.7C46,41.4,45,40.9,45,40.9L27,29H19.1z"/>
		</defs>
		<clipPath id="SVGID_00000130613637927362635050000011270971417094751893_">
			<use xlink:href="#SVGID_00000016794060273746385850000017360342729463093133_"  style="overflow:visible;"/>
		</clipPath>
		<path style="clip-path:url(#SVGID_00000130613637927362635050000011270971417094751893_);fill:#E20613;" d="M27.6,11
			c-6.4,7.3-11.1,28.7-11.5,38.1c0,0.5,0.3,1,0.9,0.9c9.3-0.6,16.8-26.6,20.1-33.5c0.4-0.8-0.9-1.6-1.4-0.9
			c-4.3,6.2-21.2,47-10.5,52.7c9.6,5.2,21-37.2,22.8-42.5c0.3-1-1.1-1.6-1.5-0.7C45,29,22.5,77.3,34.7,77.6
			C46.2,77.9,60.7,36.7,63,28c0.2-0.6-0.6-1.1-1.1-0.9C50.8,32.3,44,69.8,46,80.4c0.1,0.4,0.5,0.8,0.9,0.7c13.3-3,23.4-37,23.7-48.9
			c0-0.7-0.7-1.2-1.3-0.8c-12.7,9.1-16.6,40.6-19.9,54.5c-0.1,0.4,0.3,0.8,0.7,0.9c15.2,3.8,32.4-42.1,37.5-52.3
			c0.4-0.8-0.6-1.4-1.2-1C74,41.1,64,75.7,63.9,89.5c0,0.5,0.7,0.9,1.1,0.7c13.4-5.6,28.8-38.7,31.7-52.5c0.2-0.8-0.9-1.2-1.4-0.7
			c-9.4,10.7-20.1,37-19,51.7c0,0.5,0.5,0.7,0.9,0.7c9.7,0.2,15.6-13.4,19.6-20.4c2.1-3.6,9.2-20.6,11.3-24.1
			c0.9-1.4,1.5-4.7,1.6-4.8C107.3,44.8,100,63,98,67.8c-0.9,2.3-7.5,15.8-3.5,18c6.4,3.7,14.4-12.3,15.5-16.8c0.2-0.8-1-1.2-1.4-0.6
			c-2.7,3.1-7.9,8.3-7.1,12.9c0,0.3,0.2,0.6,0.5,0.7c5.5,2.1,11.5-3,14.3-7.2c0.6-0.8-0.7-1.9-1.3-1c-0.4,0.6-0.8,1.1-1.1,1.7
			c-2.6,3.9-6.1,5.1-10.5,3.5c0.8-2.8,3.4-5.6,5.2-7.9c-3.2,4.1-5.3,8.2-9.3,11.8c-6.5,5.8-2.6-6.4-2.6-6.4
			c2.3-7.7,10.8-29.1,14.9-36c0.5-0.9-0.6-1.8-1.3-1c-5.5,6.7-14.4,28.5-18.9,35.8c-2.4,4-5.2,7.7-8.7,10.8
			C73.1,94.3,81,67.9,82,65.6c0.9-2.2,14-29.5,11.5-22.2C91.3,49.5,82.8,68.6,79.3,74c-2.9,4.4-6.2,8.4-10.1,11.9
			c-5.5,4.9-2-9.3-1.6-11.2c1.3-5.7,3.5-11.1,6-16.3c1.7-3.6,9.1-20,12.1-22.6c0.7-0.6-1.1,0.9-1.7,2.1c-4.3,8.7-14,30.6-19.7,38.4
			c-2.9,3.9-6.5,8.1-11.4,9.2c-2,0.4,0.7-14.4,0.9-15.8c1-6.5,2.5-12.8,5.9-18.4c14.2-23.9,6.3-8.2,1.7,8.1
			c-1.5,5.2-3.8,10.1-6.9,14.5c-0.9,1.4-6.9,8.3-7.5,3.1c-0.3-2.9,0-6,0.2-8.9c0.4-5.3,1.6-10.5,3.1-15.5c0.7-2.5,12-27.2,9.5-20.4
			C56.9,40.4,47.8,61.8,43,69c-1.7,2.6-11.1,13.8-10.9,0.8c0.1-5.5,2.6-11.1,4.5-16.1c1.4-3.6,8.1-20.5,9.7-24
			c2.4-5.3-5.7,11.3-6.9,14.9c-1.2,3.6-2.4,7.1-3.8,10.6c-1.2,3.2-9.6,21.1-12.3,5.9c-1-5.6,1-12.3,2.5-17.5
			c0.7-2.5,6.8-18.3,7.8-20.7c0.5-1.3,0.9-4.9,1.1-5.3c-2.2,4.6-8.8,22.7-11.6,27C17,54.4,18,40.9,18,39.8
			C18.2,34,25.1,16.3,28.9,12C29.6,11.2,28.3,10.2,27.6,11"/>
	</g>
</g>
<path class="st7" d="M10.3,64.5l21.8,0c0,0,12.8-0.9,12.8,11.2c0,0,0.3,8.8-11.6,12.4l-11.4,2.7l3.7-4.1L11,89.9l4.9-5.8
	c0,0,0.4-0.3,0.2-0.7c-0.1-0.2-0.4-0.2-0.8,0L4.6,87.9H3V64.4h3.7l8.4,5.6c0,0,0.5,0.2,0.7,0c0.3-0.3-0.3-0.8-0.3-0.8L10.3,64.5z"/>
<path class="st2" d="M35.6,76.7c-1.9,0-3.2-1.5-3.2-3.3c0-1.8,1.3-3.3,3.2-3.3c1.8,0,3.1,1.6,3.1,3.3C38.7,75.2,37.5,76.7,35.6,76.7
	 M35.6,68c-3.1,0-5.4,2.3-5.4,5.4c0,3.1,2.4,5.3,5.5,5.3c3.1,0,5.4-2.3,5.4-5.4C41,70.3,38.7,68,35.6,68"/>
<path class="st2" d="M90.6,55.5c-3.6,0-6.1-2.9-6.1-6.4c0-3.4,2.6-6.3,6.1-6.3c3.5,0,5.9,3,5.9,6.3C96.5,52.6,94.1,55.5,90.6,55.5
	 M90.5,38.9c-6,0-10.4,4.4-10.4,10.4c0,6,4.6,10.2,10.5,10.2c5.9,0,10.4-4.4,10.4-10.3C100.9,43.2,96.4,38.9,90.5,38.9"/>
<g>
	<path class="st2" d="M120.1,38.3c-2.1-0.7-4.4-1.8-4.4-4.4c0-2,1.8-4,4.6-4c2.9,0,4.6,2.2,4.6,2.2l-1.7,1.6c0,0-1.2-1.6-2.9-1.6
		c-1.2,0-2.1,0.7-2.1,1.7c0,1.2,1.1,1.6,3,2.3c2.1,0.8,3.9,1.8,3.9,4.3s-2.2,3.9-4.9,3.9c-3.5,0-5.1-2.9-5.1-2.9l1.8-1.5
		c0,0,1.2,2.1,3.3,2.1c1.2,0,2.4-0.5,2.4-1.6C122.6,39.3,121.7,38.9,120.1,38.3z"/>
	<path class="st2" d="M136.5,39.4c0,2.8-2.2,5-5.1,5s-5.1-2.2-5.1-5c0-2.8,2.2-5,5.1-5S136.5,36.6,136.5,39.4z M134.1,39.4
		c0-1.5-1-2.7-2.6-2.7s-2.6,1.3-2.6,2.7c0,1.5,1,2.7,2.6,2.7S134.1,40.9,134.1,39.4z"/>
	<path class="st2" d="M144.9,41l1.6,1.6c0,0-1.4,1.8-3.9,1.8c-2.8,0-5.1-2.2-5.1-5c0-2.8,2.3-5,5.1-5c2.5,0,3.9,1.8,3.9,1.8
		l-1.7,1.5c0,0-0.8-1-2.2-1c-1.6,0-2.7,1.3-2.7,2.7c0,1.5,1,2.7,2.7,2.7S144.9,41,144.9,41z"/>
	<path class="st2" d="M149.4,30c0.9,0,1.6,0.7,1.6,1.6c0,0.9-0.7,1.6-1.6,1.6c-0.9,0-1.6-0.7-1.6-1.6C147.8,30.7,148.5,30,149.4,30z
		 M148.2,34.7h2.4v9.5h-2.4V34.7z"/>
	<path class="st2" d="M162.1,39.4c0,0.2,0,0.5,0,0.9H155c0.2,0.8,1.2,1.9,2.7,1.9c1.7,0,2.6-1,2.6-1l1.2,1.8c0,0-1.5,1.4-3.8,1.4
		c-2.9,0-5.1-2.2-5.1-5c0-2.8,2-5,4.8-5C159.9,34.4,162.1,36.5,162.1,39.4z M159.7,38.5c0-0.8-0.8-1.9-2.4-1.9
		c-1.5,0-2.2,1.1-2.3,1.9H159.7z"/>
	<path class="st2" d="M172.7,44.2h-2.2v-1.2c0,0-0.8,1.5-2.9,1.5c-2.5,0-4.6-2.1-4.6-5c0-2.9,2.2-5,4.6-5c1.8,0,2.7,1.2,2.7,1.2V29
		h2.4V44.2z M170.3,38c0,0-0.7-1.3-2.3-1.3c-1.6,0-2.6,1.2-2.6,2.7c0,1.6,1,2.7,2.6,2.7c1.6,0,2.3-1.3,2.3-1.3V38z"/>
	<path class="st2" d="M183.5,38v6.2h-2.2V43c0,0-1,1.4-3.1,1.4c-1.8,0-3.4-1.2-3.4-3.2c0-1.8,1.7-3.1,3.7-3.1c1.7,0,2.6,0.7,2.6,0.7
		v-0.5c0-1.2-1.2-1.6-2-1.6c-1.4,0-2.8,0.7-2.8,0.7l-0.8-2c0,0,1.8-0.9,3.7-0.9C181.9,34.4,183.5,35.8,183.5,38z M181.1,41.3v-1
		c0,0-0.9-0.5-2.2-0.5c-0.7,0-1.8,0.3-1.8,1.3c0,1,1,1.2,1.7,1.2C180.4,42.4,181.1,41.3,181.1,41.3z"/>
	<path class="st2" d="M194.8,44.2h-2.2v-1.2c0,0-0.8,1.5-2.9,1.5c-2.5,0-4.6-2.1-4.6-5c0-2.9,2.2-5,4.6-5c1.8,0,2.7,1.2,2.7,1.2V29
		h2.4V44.2z M192.4,38c0,0-0.7-1.3-2.3-1.3c-1.6,0-2.6,1.2-2.6,2.7c0,1.6,1,2.7,2.6,2.7c1.6,0,2.3-1.3,2.3-1.3V38z"/>
	<path class="st2" d="M117.8,48.2l7,9.6v-9.6h2.4v14H125l-7-9.6v9.6h-2.4v-14H117.8z"/>
	<path class="st2" d="M138,56v6.2h-2.2V61c0,0-1,1.4-3.1,1.4c-1.8,0-3.4-1.2-3.4-3.2c0-1.8,1.7-3.1,3.7-3.1c1.7,0,2.6,0.7,2.6,0.7
		v-0.5c0-1.2-1.2-1.6-2-1.6c-1.4,0-2.8,0.7-2.8,0.7l-0.8-2c0,0,1.8-0.9,3.7-0.9C136.4,52.4,138,53.8,138,56z M135.6,59.3v-1
		c0,0-0.9-0.5-2.2-0.5c-0.7,0-1.8,0.3-1.8,1.3c0,1,1,1.2,1.7,1.2C134.8,60.4,135.6,59.3,135.6,59.3z"/>
	<path class="st2" d="M147,59l1.6,1.6c0,0-1.4,1.8-3.9,1.8c-2.8,0-5.1-2.2-5.1-5c0-2.8,2.3-5,5.1-5c2.5,0,3.9,1.8,3.9,1.8l-1.7,1.5
		c0,0-0.8-1-2.2-1c-1.6,0-2.7,1.3-2.7,2.7c0,1.5,1,2.7,2.7,2.7S147,59,147,59z"/>
	<path class="st2" d="M151.5,48c0.9,0,1.6,0.7,1.6,1.6c0,0.9-0.7,1.6-1.6,1.6c-0.9,0-1.6-0.7-1.6-1.6C149.9,48.7,150.6,48,151.5,48z
		 M150.3,52.7h2.4v9.5h-2.4V52.7z"/>
	<path class="st2" d="M164.8,57.4c0,2.8-2.2,5-5.1,5s-5.1-2.2-5.1-5c0-2.8,2.2-5,5.1-5S164.8,54.6,164.8,57.4z M162.3,57.4
		c0-1.5-1-2.7-2.6-2.7s-2.6,1.3-2.6,2.7c0,1.5,1,2.7,2.6,2.7S162.3,58.9,162.3,57.4z"/>
	<path class="st2" d="M174.9,56v6.1h-2.4v-5.5c0-1.4-0.8-1.9-1.9-1.9c-1.2,0-1.9,1.2-1.9,1.2v6.3h-2.4v-9.5h2.2v1.4
		c0,0,0.8-1.6,2.8-1.6C173.3,52.4,174.9,53.7,174.9,56z"/>
	<path class="st2" d="M185.4,56v6.2h-2.2V61c0,0-1,1.4-3.1,1.4c-1.8,0-3.4-1.2-3.4-3.2c0-1.8,1.7-3.1,3.7-3.1c1.7,0,2.6,0.7,2.6,0.7
		v-0.5c0-1.2-1.2-1.6-2-1.6c-1.4,0-2.8,0.7-2.8,0.7l-0.8-2c0,0,1.8-0.9,3.7-0.9C183.8,52.4,185.4,53.8,185.4,56z M183,59.3v-1
		c0,0-0.9-0.5-2.2-0.5c-0.7,0-1.8,0.3-1.8,1.3c0,1,1,1.2,1.7,1.2C182.3,60.4,183,59.3,183,59.3z"/>
	<path class="st2" d="M187.9,47h2.4v15.1h-2.4V47z"/>
	<path class="st2" d="M207.5,62.2h-2.2v-1.2c0,0-0.8,1.5-2.9,1.5c-2.5,0-4.6-2.1-4.6-5c0-2.9,2.2-5,4.6-5c1.8,0,2.7,1.2,2.7,1.2V47
		h2.4V62.2z M205.1,56c0,0-0.7-1.3-2.3-1.3c-1.6,0-2.6,1.2-2.6,2.7c0,1.6,1,2.7,2.6,2.7c1.6,0,2.3-1.3,2.3-1.3V56z"/>
	<path class="st2" d="M218.9,57.4c0,0.2,0,0.5,0,0.9h-7.1c0.2,0.8,1.2,1.9,2.7,1.9c1.7,0,2.6-1,2.6-1l1.2,1.8c0,0-1.5,1.4-3.8,1.4
		c-2.9,0-5.1-2.2-5.1-5c0-2.8,2-5,4.8-5C216.7,52.4,218.9,54.5,218.9,57.4z M216.5,56.5c0-0.8-0.8-1.9-2.4-1.9
		c-1.5,0-2.2,1.1-2.3,1.9H216.5z"/>
	<path class="st2" d="M115.6,66.2h4.8c2.8,0,4.6,1.9,4.6,4.5s-1.9,4.5-4.6,4.5H118v5h-2.4V66.2z M122.6,70.6c0-1.3-0.9-2.2-2.5-2.2
		H118v4.4h2.1C121.7,72.8,122.6,72,122.6,70.6z"/>
	<path class="st2" d="M135.4,75.4c0,0.2,0,0.5,0,0.9h-7.1c0.2,0.8,1.2,1.9,2.7,1.9c1.7,0,2.6-1,2.6-1l1.2,1.8c0,0-1.5,1.4-3.8,1.4
		c-2.9,0-5.1-2.2-5.1-5c0-2.8,2-5,4.8-5C133.2,70.4,135.4,72.5,135.4,75.4z M133,74.5c0-0.8-0.8-1.9-2.4-1.9c-1.5,0-2.2,1.1-2.3,1.9
		H133z"/>
	<path class="st2" d="M137.7,76.9c0,0,1.3,1.4,2.9,1.4c1,0,1.8-0.3,1.8-0.9c0-0.6-0.4-0.7-1.9-1c-1.9-0.4-3.5-1.2-3.5-3
		c0-1.5,1.5-3,4.1-3c2.1,0,3.6,1.2,3.6,1.2l-1.2,1.8c0,0-1.1-0.8-2.4-0.8c-0.9,0-1.7,0.3-1.7,0.9s0.6,0.7,2.2,1.1
		c1.9,0.4,3.2,1,3.2,3c0,1.6-1.7,2.9-4.1,2.9c-2.8,0-4.3-1.7-4.3-1.7L137.7,76.9z"/>
	<path class="st2" d="M155.5,70.7v14.1h-2.4v-5.6c-0.3,0.4-1.2,1.2-2.7,1.2c-2.5,0-4.6-2.1-4.6-5s2.2-5,4.6-5c2,0,2.9,1.5,2.9,1.5
		v-1.2H155.5z M153.1,74c0,0-0.7-1.3-2.3-1.3c-1.6,0-2.6,1.2-2.6,2.7s1,2.7,2.6,2.7c1.6,0,2.3-1.3,2.3-1.3V74z"/>
	<path class="st2" d="M157.7,76.8v-6.1h2.4v5.5c0,1.4,0.7,2,1.9,2c1.2,0,1.9-1.2,1.9-1.2v-6.3h2.4v9.5H164v-1.4c0,0-0.9,1.6-2.8,1.6
		C159.3,80.4,157.7,79.1,157.7,76.8z"/>
	<path class="st2" d="M177.3,75.4c0,0.2,0,0.5,0,0.9h-7.1c0.2,0.8,1.2,1.9,2.7,1.9c1.7,0,2.6-1,2.6-1l1.2,1.8c0,0-1.5,1.4-3.8,1.4
		c-2.9,0-5.1-2.2-5.1-5c0-2.8,2-5,4.8-5C175.1,70.4,177.3,72.5,177.3,75.4z M174.9,74.5c0-0.8-0.8-1.9-2.4-1.9
		c-1.5,0-2.2,1.1-2.3,1.9H174.9z"/>
	<path class="st2" d="M185.4,70.7l-0.8,2.2c0,0-0.4-0.2-1.1-0.2c-1.5,0-2.1,1.3-2.1,1.3v6.2h-2.4v-9.5h2.3v1.4c0,0,0.8-1.6,2.6-1.6
		C184.6,70.4,185.4,70.7,185.4,70.7z"/>
	<path class="st2" d="M190.8,66.3l-3.5,3.4l-1.5-1.5l3.4-3.5L190.8,66.3z M186.7,70.9h2.4v9.2h-2.4V70.9z"/>
	<path class="st2" d="M200.1,74v6.2h-2.2V79c0,0-1,1.4-3.1,1.4c-1.8,0-3.4-1.2-3.4-3.2c0-1.8,1.7-3.1,3.7-3.1c1.7,0,2.6,0.7,2.6,0.7
		v-0.5c0-1.2-1.2-1.6-2-1.6c-1.4,0-2.8,0.7-2.8,0.7l-0.8-2c0,0,1.8-0.9,3.7-0.9C198.5,70.4,200.1,71.8,200.1,74z M197.7,77.3v-1
		c0,0-0.9-0.5-2.2-0.5c-0.7,0-1.8,0.3-1.8,1.3c0,1,1,1.2,1.7,1.2C196.9,78.4,197.7,77.3,197.7,77.3z"/>
</g>
</svg>
