<?xml version="1.0" encoding="utf-8"?>
<!-- Generator: Adobe Illustrator 26.1.0, SVG Export Plug-In . SVG Version: 6.00 Build 0)  -->
<svg version="1.1" id="Capa_1" xmlns="http://www.w3.org/2000/svg" xmlns:xlink="http://www.w3.org/1999/xlink" x="0px" y="0px"
	 viewBox="0 0 218.9 86.4" style="enable-background:new 0 0 218.9 86.4;" xml:space="preserve">
<style type="text/css">
	.st0{fill:#921913;}
	.st1{fill:#E64011;}
	.st2{fill:#FFFFFF;}
	.st3{clip-path:url(#SVGID_00000049209114158510318220000000865981935120123545_);fill:#F29100;}
	.st4{clip-path:url(#SVGID_00000060713918080008483320000016420531545474604957_);fill:#BD1717;}
	.st5{clip-path:url(#SVGID_00000145055958199410157030000018010018045574348451_);fill:#BD1717;}
	.st6{clip-path:url(#SVGID_00000134953709636181923280000017556145133428246701_);fill:#E20613;}
	.st7{fill:#F29100;}
</style>
<path class="st0" d="M31.8,24.9h46.6c0,0,27.4-2,27.3,23.9c0,0,0.7,18.9-24.8,26.5l-24.3,5.7l7.8-8.7l-31.1,7L43.6,67
	c0,0,0.9-0.7,0.3-1.6C43.7,65,43,65,42.2,65.5L19.5,75h-3.4V24.7H24l18,11.9c0,0,1,0.5,1.6-0.1c0.6-0.6-0.6-1.7-0.6-1.7L31.8,24.9z"
	/>
<path class="st1" d="M5.4,0h16.1c0,0,9.5-0.7,9.5,8.3c0,0,0.2,6.5-8.6,9.2l-8.4,2l2.7-3L5.9,18.9l3.6-4.3c0,0,0.3-0.3,0.1-0.5
	C9.6,14,9.3,14,9,14.1l-7.9,3.3H0V0h2.7L9,4.1c0,0,0.3,0.2,0.6,0c0.2-0.2-0.2-0.6-0.2-0.6L5.4,0z"/>
<path class="st2" d="M24.2,9.1c-1.4,0-2.3-1.1-2.3-2.5c0-1.3,1-2.4,2.3-2.4c1.4,0,2.3,1.2,2.3,2.5C26.5,8,25.5,9.1,24.2,9.1
	 M24.2,2.7c-2.3,0-4,1.7-4,4c0,2.3,1.8,3.9,4,3.9c2.3,0,4-1.7,4-4S26.4,2.7,24.2,2.7"/>
<g>
	<g>
		<defs>
			<path id="SVGID_1_" d="M16.1,24.7V75h3.4l22.7-9.5C43,65,43.7,65,44,65.4c0.6,0.8-0.3,1.6-0.3,1.6L33.3,79.3l31.1-7L56.6,81
				l24.3-5.7c25.5-7.6,24.8-26.5,24.8-26.5c0.1-25.9-27.3-23.9-27.3-23.9H31.8L43,34.8c0,0,1.3,1.1,0.6,1.7C43,37.1,42,36.6,42,36.6
				L24,24.7H16.1z"/>
		</defs>
		<clipPath id="SVGID_00000006704032680219699900000010084486873687754151_">
			<use xlink:href="#SVGID_1_"  style="overflow:visible;"/>
		</clipPath>
		<path style="clip-path:url(#SVGID_00000006704032680219699900000010084486873687754151_);fill:#F29100;" d="M89.8,78.4
			c6.1-11.3,6.9-26.4,4.8-40c-0.1-0.5-0.8-0.9-1.2-0.6c-10.4,8.3-15.7,26.9-17,40.6c-0.1,0.7,0.7,1.1,1.2,0.8
			c12-6.8,11.1-21.8,12.6-34.8c0.8-7,0.8-18.8-9.1-19.8c-9.3-0.9-16.9,12.2-20.8,18.2c-5.6,8.6-11.5,19-13.2,29.8
			c-0.1,0.6,0.8,1.2,1.2,0.8c9.2-7.6,10.2-22.2,11.6-34.1c0.9-7.4,5.7-20.3,0.3-27.7c-5.1-7-16.9,7.5-18.8,10.1
			c-8,10.6-12.9,22.3-7.3,36.7c0.2,0.5,1.8,1.8,2.1,1.6c12.1-6.3,17-26.4,15.1-40.3c-0.1-1-1.6-0.9-1.4,0.1
			c1.9,13.7-2.9,28.5-11.9,37.2c-3.7,3.6-4.5-7.2-4.5-8c0-4.9,1.3-9.5,2.7-13.9c3.1-9.5,9.7-19.3,18.9-23.1c8-3.3,4.9,15.8,4.6,17.9
			c-0.8,5.4-1.4,10.9-2.1,16.4c-1.1,8.3-2.8,16.6-7.4,23.2c-3.7,5.2-0.6-0.6,0-2.4c0.9-2.9,2.2-5.6,3.4-8.3
			C58.2,47.6,64.7,36.3,74,28.9c2.1-1.7,4.5-2.8,7.3-2.9c8.3-0.5,7.7,11.5,7.5,15.5c-0.3,6.7-1.4,13.6-2.1,20.2
			c-0.7,6.2-3.3,11.1-7.8,14.8c-2.5,2,0.4-6.3,0.5-6.7c1.7-7.2,4.4-14,7.5-20.5c1.5-3.1,3.2-5.9,5.3-8.5c1.5-1.8,1.9,9,1.9,10.6
			c0,9.2-1.5,18.5-5.7,26.2C88,78.4,89.4,79.1,89.8,78.4"/>
	</g>
	<g>
		<defs>
			<path id="SVGID_00000064332584950146985350000003320467034689542529_" d="M16.1,24.7V75h3.4l22.7-9.5C43,65,43.7,65,44,65.4
				c0.6,0.8-0.3,1.6-0.3,1.6L33.3,79.3l31.1-7L56.6,81l24.3-5.7c25.5-7.6,24.8-26.5,24.8-26.5c0.1-25.9-27.3-23.9-27.3-23.9H31.8
				L43,34.8c0,0,1.3,1.1,0.6,1.7C43,37.1,42,36.6,42,36.6L24,24.7H16.1z"/>
		</defs>
		<clipPath id="SVGID_00000162312847342797364590000012464744869820113799_">
			<use xlink:href="#SVGID_00000064332584950146985350000003320467034689542529_"  style="overflow:visible;"/>
		</clipPath>
		<path style="clip-path:url(#SVGID_00000162312847342797364590000012464744869820113799_);fill:#BD1717;" d="M96.5,77.9
			c-1.9,2-2.1-1.4-2.3-0.7c-1.5,3.4-3.3,7.2-3.9,10.9c0.8-5.4,2.9-11.9,4.6-17.6c0.8-2.7,2-5.4,2.6-8.1c2.4-12.5-2.6-8.8-4.9-5.8
			c-2.9,3.7-5.3,7.9-7.1,12.2c-2.2,5.3-3,10.8,1,2.2c4.5-9.6,5.6-20.4,6.6-30.9c0.1-0.9,1.5-0.5,1.4,0.4C93,53,92.4,69.4,82.6,78.2
			c-0.4,0.4-1.2,0.2-1.2-0.5c0-6.2,7.3-25.2,14.8-25.3c8.2-0.1-4,33.4-6.1,36.6c-0.4,0.7-1.4,0.3-1.3-0.5c0.4-2.8,3.5-10,7.5-11.6
			L96.5,77.9z"/>
	</g>
	<g>
		<defs>
			<path id="SVGID_00000114760607907887150600000017127695428688624000_" d="M16.1,24.7V75h3.4l22.7-9.5C43,65,43.7,65,44,65.4
				c0.6,0.8-0.3,1.6-0.3,1.6L33.3,79.3l31.1-7L56.6,81l24.3-5.7c25.5-7.6,24.8-26.5,24.8-26.5c0.1-25.9-27.3-23.9-27.3-23.9H31.8
				L43,34.8c0,0,1.3,1.1,0.6,1.7C43,37.1,42,36.6,42,36.6L24,24.7H16.1z"/>
		</defs>
		<clipPath id="SVGID_00000132078363703597167680000008466283190067722659_">
			<use xlink:href="#SVGID_00000114760607907887150600000017127695428688624000_"  style="overflow:visible;"/>
		</clipPath>
		<path style="clip-path:url(#SVGID_00000132078363703597167680000008466283190067722659_);fill:#BD1717;" d="M61,71.5
			c4.8-10.2,12.2-18.9,16-29.6c0.4-1.2,4.2-16.1-2-14c-7.4,2.6-11.6,16.5-14.5,23c-2.2,4.8-4.2,9-7.2,13.3c-2.2,3.3-5,7.7-2.7,11.7
			c0.2,0.4,0.8,0.5,1.1,0.1C63.1,62.5,67,44.8,69.5,27.3c0.1-0.7-0.7-1.2-1.2-0.7C57,37.8,42.6,48,47.8,66.2
			c0.1,0.4,0.5,0.6,0.9,0.5C63.3,63.1,83,29,63.6,19.6c-9.9-4.8-21.5,8.6-26.9,14.7c-7.1,7.9-20.4,20.5-18.5,32.2
			c0.1,0.4,0.5,0.5,0.9,0.5C37.4,63.5,49,40.3,41.5,22.1c-4-9.7-24.4,21.3-25.7,24.9c-0.3,0.8,0.9,1.1,1.3,0.5
			c2.7-4.1,16.6-20,9.1-25C17.7,16.6,7.8,32.9,6.7,39.8c-0.1,0.6,0.5,1.1,1,0.8c4.9-2.8,7.2-7,9.3-12.3c0.3-0.8-0.9-1.5-1.2-0.7
			c-0.6,1.7-1.3,3.3-2.1,4.8c0-0.1-8,12.1-4.4,3.7c1.6-3.8,4.4-7.2,7.2-10.1c2.8-3.7,6.1-3.4,10.1,0.7c0.3,2.8-1.6,5.8-2.7,8.1
			c-1.7,3.3-3.9,6.3-6,9.2c-3.9,5.4,2.4-3.5,3.6-5.3c3.1-5,7.5-9.2,11.6-13.2c9.1-8.8,8.8,5.8,8.2,11.5c-0.6,5.5-2.9,10.5-5.7,15.1
			c-1.5,2.2-3.2,4.3-5.1,6.1c1.1-1.1-11.8,10.6-10.9,2.7c0.6-5.5,6-10.1,9.2-14.3c4.4-5.8,8.9-11.5,14-16.7
			c6.7-6.8,21.2-16.5,26.7-2.2c3.2,8.5-2.7,19.1-7.1,25.8c-2.4,3.7-5.5,6.9-9,9.5c-6.7,5-5.8-5-4.9-9.7C50.2,44,59.4,37,65.9,31
			c4.3-4,0.7,5.5,0.3,7.9c-1,5.2-2.4,10.2-4,15.2c-2.2,6.8-3.4,9.3-7.6,15c-1.3,1.3-2.3,1.2-2.5,0c0.7-1.4,1.5-2.8,2.4-4.1
			c1-1.7,2.2-3.2,3.3-4.9c2.8-4,4.3-9.5,6.3-13.9c1.5-3.1,3-6.1,4.7-9.1c0.5-1,7.8-12.6,8.6-3.6c1.1,13-12.6,26.4-17.7,37.3
			C59.4,71.6,60.6,72.3,61,71.5"/>
	</g>
	<g>
		<defs>
			<path id="SVGID_00000079469281846496204430000015285693733016284853_" d="M16.1,24.7V75h3.4l22.7-9.5C43,65,43.7,65,44,65.4
				c0.6,0.8-0.3,1.6-0.3,1.6L33.3,79.3l31.1-7L56.6,81l24.3-5.7c25.5-7.6,24.8-26.5,24.8-26.5c0.1-25.9-27.3-23.9-27.3-23.9H31.8
				L43,34.8c0,0,1.3,1.1,0.6,1.7C43,37.1,42,36.6,42,36.6L24,24.7H16.1z"/>
		</defs>
		<clipPath id="SVGID_00000173123862085631887770000005140643235765054863_">
			<use xlink:href="#SVGID_00000079469281846496204430000015285693733016284853_"  style="overflow:visible;"/>
		</clipPath>
		<path style="clip-path:url(#SVGID_00000173123862085631887770000005140643235765054863_);fill:#E20613;" d="M24.6,6.7
			c-6.4,7.3-11.1,28.7-11.5,38.1c0,0.5,0.3,1,0.9,0.9c9.3-0.6,16.8-26.6,20.1-33.5c0.4-0.8-0.9-1.6-1.4-0.9
			c-4.3,6.2-21.2,47-10.5,52.7c9.6,5.2,21-37.2,22.8-42.5c0.3-1-1.1-1.6-1.5-0.7C42,24.6,19.5,72.9,31.7,73.2
			C43.3,73.5,57.7,32.4,60,23.7c0.2-0.6-0.6-1.1-1.1-0.9C47.9,28,41,65.4,43,76c0.1,0.4,0.5,0.8,0.9,0.7c13.3-3,23.4-37,23.7-48.9
			c0-0.7-0.7-1.2-1.3-0.8c-12.7,9.1-16.6,40.6-19.9,54.5c-0.1,0.4,0.3,0.8,0.7,0.9c15.2,3.8,32.4-42.1,37.5-52.3
			c0.4-0.8-0.6-1.4-1.2-1C71.1,36.8,61,71.4,61,85.2c0,0.5,0.7,0.9,1.1,0.7c13.4-5.6,28.8-38.7,31.7-52.5c0.2-0.8-0.9-1.2-1.4-0.7
			c-9.4,10.7-20.1,37-19,51.7c0,0.5,0.5,0.7,0.9,0.7c9.7,0.2,15.6-13.4,19.6-20.4c2.1-3.6,9.2-20.6,11.3-24.1
			c0.9-1.4,1.5-4.7,1.6-4.8C104.3,40.5,97,58.7,95,63.5c-0.9,2.3-7.5,15.8-3.5,18c6.4,3.7,14.4-12.3,15.5-16.8
			c0.2-0.8-1-1.2-1.4-0.6c-2.7,3.1-7.9,8.3-7.1,12.9c0,0.3,0.2,0.6,0.5,0.7c5.5,2.1,11.5-3,14.3-7.2c0.6-0.8-0.7-1.9-1.3-1
			c-0.4,0.6-0.8,1.1-1.1,1.7c-2.6,3.9-6.1,5.1-10.5,3.5c0.8-2.8,3.4-5.6,5.2-7.9c-3.2,4.1-5.3,8.2-9.3,11.8
			c-6.5,5.8-2.6-6.4-2.6-6.4c2.3-7.7,10.8-29.1,14.9-36c0.5-0.9-0.6-1.8-1.3-1c-5.5,6.7-14.4,28.5-18.9,35.8
			c-2.4,4-5.2,7.7-8.7,10.8C70.1,90,78,63.6,79,61.3C80,59,93,31.8,90.5,39.1c-2.1,6.1-10.7,25.2-14.1,30.5
			c-2.9,4.4-6.2,8.4-10.1,11.9c-5.5,4.9-2-9.3-1.6-11.2c1.3-5.7,3.5-11.1,6-16.3c1.7-3.6,9.1-20,12.1-22.6c0.7-0.6-1.1,0.9-1.7,2.1
			c-4.3,8.7-14,30.6-19.7,38.4c-2.9,3.9-6.5,8.1-11.4,9.2c-2,0.4,0.7-14.4,0.9-15.8c1-6.5,2.5-12.8,5.9-18.4
			c14.2-23.9,6.3-8.2,1.7,8.1c-1.5,5.2-3.8,10.1-6.9,14.5c-0.9,1.4-6.9,8.3-7.5,3.1c-0.3-2.9,0-6,0.2-8.9c0.4-5.3,1.6-10.5,3.1-15.5
			c0.7-2.5,12-27.2,9.5-20.4c-3,8.2-12.1,29.6-16.9,36.8c-1.7,2.6-11.1,13.8-10.9,0.8c0.1-5.5,2.6-11.1,4.5-16.1
			c1.4-3.6,8.1-20.5,9.7-24c2.4-5.3-5.7,11.3-6.9,14.9c-1.2,3.6-2.4,7.1-3.8,10.6c-1.2,3.2-9.6,21.1-12.3,5.9
			c-1-5.6,1-12.3,2.5-17.5c0.7-2.5,6.8-18.3,7.8-20.7c0.5-1.3,0.9-4.9,1.1-5.3c-2.2,4.6-8.8,22.7-11.6,27c-6.2,9.8-5.2-3.8-5.2-4.8
			c0.2-5.8,7.1-23.5,10.9-27.8C26.6,6.9,25.3,5.9,24.6,6.7"/>
	</g>
</g>
<path class="st7" d="M7.3,60.1l21.8,0c0,0,12.8-0.9,12.8,11.2c0,0,0.3,8.8-11.6,12.4l-11.4,2.7l3.7-4.1L8,85.6l4.9-5.8
	c0,0,0.4-0.3,0.2-0.7c-0.1-0.2-0.4-0.2-0.8,0L1.6,83.6H0V60.1h3.7l8.4,5.6c0,0,0.5,0.2,0.7,0c0.3-0.3-0.3-0.8-0.3-0.8L7.3,60.1z"/>
<path class="st2" d="M32.7,72.4c-1.9,0-3.2-1.5-3.2-3.3c0-1.8,1.3-3.3,3.2-3.3c1.8,0,3.1,1.6,3.1,3.3C35.8,70.9,34.5,72.4,32.7,72.4
	 M32.6,63.7c-3.1,0-5.4,2.3-5.4,5.4c0,3.1,2.4,5.3,5.5,5.3c3.1,0,5.4-2.3,5.4-5.4C38.1,66,35.7,63.7,32.6,63.7"/>
<path class="st2" d="M87.6,51.2c-3.6,0-6.1-2.9-6.1-6.4c0-3.4,2.6-6.3,6.1-6.3c3.5,0,5.9,3,5.9,6.3C93.5,48.3,91.1,51.2,87.6,51.2
	 M87.5,34.5c-6,0-10.4,4.4-10.4,10.4c0,6,4.6,10.2,10.5,10.2c5.9,0,10.4-4.4,10.4-10.3C97.9,38.9,93.4,34.5,87.5,34.5"/>
<g>
	<path class="st0" d="M120.1,34c-2.1-0.7-4.4-1.8-4.4-4.4c0-2,1.8-4,4.6-4c2.9,0,4.6,2.2,4.6,2.2l-1.7,1.6c0,0-1.2-1.6-2.9-1.6
		c-1.2,0-2.1,0.7-2.1,1.7c0,1.2,1.1,1.6,3,2.3c2.1,0.8,3.9,1.8,3.9,4.3s-2.2,3.9-4.9,3.9c-3.5,0-5.1-2.9-5.1-2.9l1.8-1.5
		c0,0,1.2,2.1,3.3,2.1c1.2,0,2.4-0.5,2.4-1.6C122.7,35,121.8,34.6,120.1,34z"/>
	<path class="st0" d="M136.6,35.1c0,2.8-2.2,5-5.1,5s-5.1-2.2-5.1-5c0-2.8,2.2-5,5.1-5S136.6,32.3,136.6,35.1z M134.1,35.1
		c0-1.5-1-2.7-2.6-2.7s-2.6,1.3-2.6,2.7c0,1.5,1,2.7,2.6,2.7S134.1,36.6,134.1,35.1z"/>
	<path class="st0" d="M144.9,36.7l1.6,1.6c0,0-1.4,1.8-3.9,1.8c-2.8,0-5.1-2.2-5.1-5c0-2.8,2.3-5,5.1-5c2.5,0,3.9,1.8,3.9,1.8
		l-1.7,1.5c0,0-0.8-1-2.2-1c-1.6,0-2.7,1.3-2.7,2.7c0,1.5,1,2.7,2.7,2.7S144.9,36.7,144.9,36.7z"/>
	<path class="st0" d="M149.4,25.7c0.9,0,1.6,0.7,1.6,1.6c0,0.9-0.7,1.6-1.6,1.6c-0.9,0-1.6-0.7-1.6-1.6
		C147.9,26.4,148.6,25.7,149.4,25.7z M148.2,30.4h2.4v9.5h-2.4V30.4z"/>
	<path class="st0" d="M162.1,35.1c0,0.2,0,0.5,0,0.9H155c0.2,0.8,1.2,1.9,2.7,1.9c1.7,0,2.6-1,2.6-1l1.2,1.8c0,0-1.5,1.4-3.8,1.4
		c-2.9,0-5.1-2.2-5.1-5c0-2.8,2-5,4.8-5C159.9,30.1,162.1,32.1,162.1,35.1z M159.7,34.2c0-0.8-0.8-1.9-2.4-1.9
		c-1.5,0-2.2,1.1-2.3,1.9H159.7z"/>
	<path class="st0" d="M172.7,39.8h-2.2v-1.2c0,0-0.8,1.5-2.9,1.5c-2.5,0-4.6-2.1-4.6-5c0-2.9,2.2-5,4.6-5c1.8,0,2.7,1.2,2.7,1.2
		v-6.6h2.4V39.8z M170.3,33.7c0,0-0.7-1.3-2.3-1.3c-1.6,0-2.6,1.2-2.6,2.7c0,1.6,1,2.7,2.6,2.7c1.6,0,2.3-1.3,2.3-1.3V33.7z"/>
	<path class="st0" d="M183.5,33.7v6.2h-2.2v-1.2c0,0-1,1.4-3.1,1.4c-1.8,0-3.4-1.2-3.4-3.2c0-1.8,1.7-3.1,3.7-3.1
		c1.7,0,2.6,0.7,2.6,0.7v-0.5c0-1.2-1.2-1.6-2-1.6c-1.4,0-2.8,0.7-2.8,0.7l-0.8-2c0,0,1.8-0.9,3.7-0.9
		C181.9,30.1,183.5,31.5,183.5,33.7z M181.1,37v-1c0,0-0.9-0.5-2.2-0.5c-0.7,0-1.8,0.3-1.8,1.3c0,1,1,1.2,1.7,1.2
		C180.4,38.1,181.1,37,181.1,37z"/>
	<path class="st0" d="M194.8,39.8h-2.2v-1.2c0,0-0.8,1.5-2.9,1.5c-2.5,0-4.6-2.1-4.6-5c0-2.9,2.2-5,4.6-5c1.8,0,2.7,1.2,2.7,1.2
		v-6.6h2.4V39.8z M192.4,33.7c0,0-0.7-1.3-2.3-1.3c-1.6,0-2.6,1.2-2.6,2.7c0,1.6,1,2.7,2.6,2.7c1.6,0,2.3-1.3,2.3-1.3V33.7z"/>
	<path class="st0" d="M117.8,43.8l7,9.6v-9.6h2.4v14h-2.2l-7-9.6v9.6h-2.4v-14H117.8z"/>
	<path class="st0" d="M138,51.7v6.2h-2.2v-1.2c0,0-1,1.4-3.1,1.4c-1.8,0-3.4-1.2-3.4-3.2c0-1.8,1.7-3.1,3.7-3.1
		c1.7,0,2.6,0.7,2.6,0.7v-0.5c0-1.2-1.2-1.6-2-1.6c-1.4,0-2.8,0.7-2.8,0.7l-0.8-2c0,0,1.8-0.9,3.7-0.9C136.4,48.1,138,49.5,138,51.7
		z M135.6,55v-1c0,0-0.9-0.5-2.2-0.5c-0.7,0-1.8,0.3-1.8,1.3c0,1,1,1.2,1.7,1.2C134.9,56.1,135.6,55,135.6,55z"/>
	<path class="st0" d="M147,54.7l1.6,1.6c0,0-1.4,1.8-3.9,1.8c-2.8,0-5.1-2.2-5.1-5c0-2.8,2.3-5,5.1-5c2.5,0,3.9,1.8,3.9,1.8
		l-1.7,1.5c0,0-0.8-1-2.2-1c-1.6,0-2.7,1.3-2.7,2.7c0,1.5,1,2.7,2.7,2.7S147,54.7,147,54.7z"/>
	<path class="st0" d="M151.5,43.7c0.9,0,1.6,0.7,1.6,1.6c0,0.9-0.7,1.6-1.6,1.6c-0.9,0-1.6-0.7-1.6-1.6
		C150,44.4,150.7,43.7,151.5,43.7z M150.3,48.4h2.4v9.5h-2.4V48.4z"/>
	<path class="st0" d="M164.8,53.1c0,2.8-2.2,5-5.1,5s-5.1-2.2-5.1-5c0-2.8,2.2-5,5.1-5S164.8,50.3,164.8,53.1z M162.4,53.1
		c0-1.5-1-2.7-2.6-2.7s-2.6,1.3-2.6,2.7c0,1.5,1,2.7,2.6,2.7S162.4,54.6,162.4,53.1z"/>
	<path class="st0" d="M174.9,51.7v6.1h-2.4v-5.5c0-1.4-0.8-1.9-1.9-1.9c-1.2,0-1.9,1.2-1.9,1.2v6.3h-2.4v-9.5h2.2v1.4
		c0,0,0.8-1.6,2.8-1.6C173.3,48.1,174.9,49.4,174.9,51.7z"/>
	<path class="st0" d="M185.4,51.7v6.2h-2.2v-1.2c0,0-1,1.4-3.1,1.4c-1.8,0-3.4-1.2-3.4-3.2c0-1.8,1.7-3.1,3.7-3.1
		c1.7,0,2.6,0.7,2.6,0.7v-0.5c0-1.2-1.2-1.6-2-1.6c-1.4,0-2.8,0.7-2.8,0.7l-0.8-2c0,0,1.8-0.9,3.7-0.9
		C183.8,48.1,185.4,49.5,185.4,51.7z M183,55v-1c0,0-0.9-0.5-2.2-0.5c-0.7,0-1.8,0.3-1.8,1.3c0,1,1,1.2,1.7,1.2
		C182.3,56.1,183,55,183,55z"/>
	<path class="st0" d="M187.9,42.7h2.4v15.1h-2.4V42.7z"/>
	<path class="st0" d="M207.5,57.8h-2.2v-1.2c0,0-0.8,1.5-2.9,1.5c-2.5,0-4.6-2.1-4.6-5c0-2.9,2.2-5,4.6-5c1.8,0,2.7,1.2,2.7,1.2
		v-6.6h2.4V57.8z M205.1,51.7c0,0-0.7-1.3-2.3-1.3c-1.6,0-2.6,1.2-2.6,2.7c0,1.6,1,2.7,2.6,2.7c1.6,0,2.3-1.3,2.3-1.3V51.7z"/>
	<path class="st0" d="M218.9,53.1c0,0.2,0,0.5,0,0.9h-7.1c0.2,0.8,1.2,1.9,2.7,1.9c1.7,0,2.6-1,2.6-1l1.2,1.8c0,0-1.5,1.4-3.8,1.4
		c-2.9,0-5.1-2.2-5.1-5c0-2.8,2-5,4.8-5C216.7,48.1,218.9,50.1,218.9,53.1z M216.5,52.2c0-0.8-0.8-1.9-2.4-1.9
		c-1.5,0-2.2,1.1-2.3,1.9H216.5z"/>
	<path class="st0" d="M115.7,61.8h4.8c2.8,0,4.6,1.9,4.6,4.5s-1.9,4.5-4.6,4.5h-2.4v5h-2.4V61.8z M122.6,66.3c0-1.3-0.9-2.2-2.5-2.2
		h-2.1v4.4h2.1C121.8,68.5,122.6,67.6,122.6,66.3z"/>
	<path class="st0" d="M135.4,71.1c0,0.2,0,0.5,0,0.9h-7.1c0.2,0.8,1.2,1.9,2.7,1.9c1.7,0,2.6-1,2.6-1l1.2,1.8c0,0-1.5,1.4-3.8,1.4
		c-2.9,0-5.1-2.2-5.1-5c0-2.8,2-5,4.8-5C133.2,66.1,135.4,68.1,135.4,71.1z M133,70.2c0-0.8-0.8-1.9-2.4-1.9c-1.5,0-2.2,1.1-2.3,1.9
		H133z"/>
	<path class="st0" d="M137.7,72.6c0,0,1.3,1.4,2.9,1.4c1,0,1.8-0.3,1.8-0.9c0-0.6-0.4-0.7-1.9-1c-1.9-0.4-3.5-1.2-3.5-3
		c0-1.5,1.5-3,4.1-3c2.1,0,3.6,1.2,3.6,1.2l-1.2,1.8c0,0-1.1-0.8-2.4-0.8c-0.9,0-1.7,0.3-1.7,0.9s0.6,0.7,2.2,1.1
		c1.9,0.4,3.2,1,3.2,3c0,1.6-1.7,2.9-4.1,2.9c-2.8,0-4.3-1.7-4.3-1.7L137.7,72.6z"/>
	<path class="st0" d="M155.5,66.4v14.1h-2.4v-5.6c-0.3,0.4-1.2,1.2-2.7,1.2c-2.5,0-4.6-2.1-4.6-5s2.2-5,4.6-5c2,0,2.9,1.5,2.9,1.5
		v-1.2H155.5z M153.1,69.7c0,0-0.7-1.3-2.3-1.3c-1.6,0-2.6,1.2-2.6,2.7s1,2.7,2.6,2.7c1.6,0,2.3-1.3,2.3-1.3V69.7z"/>
	<path class="st0" d="M157.7,72.5v-6.1h2.4v5.5c0,1.4,0.7,2,1.9,2c1.2,0,1.9-1.2,1.9-1.2v-6.3h2.4v9.5H164v-1.4c0,0-0.9,1.6-2.8,1.6
		C159.3,76.1,157.7,74.8,157.7,72.5z"/>
	<path class="st0" d="M177.3,71.1c0,0.2,0,0.5,0,0.9h-7.1c0.2,0.8,1.2,1.9,2.7,1.9c1.7,0,2.6-1,2.6-1l1.2,1.8c0,0-1.5,1.4-3.8,1.4
		c-2.9,0-5.1-2.2-5.1-5c0-2.8,2-5,4.8-5C175.2,66.1,177.3,68.1,177.3,71.1z M174.9,70.2c0-0.8-0.8-1.9-2.4-1.9
		c-1.5,0-2.2,1.1-2.3,1.9H174.9z"/>
	<path class="st0" d="M185.4,66.4l-0.8,2.2c0,0-0.4-0.2-1.1-0.2c-1.5,0-2.1,1.3-2.1,1.3v6.2h-2.4v-9.5h2.3v1.4c0,0,0.8-1.6,2.6-1.6
		C184.6,66.1,185.4,66.4,185.4,66.4z"/>
	<path class="st0" d="M190.8,62l-3.5,3.4l-1.5-1.5l3.4-3.5L190.8,62z M186.7,66.6h2.4v9.2h-2.4V66.6z"/>
	<path class="st0" d="M200.1,69.7v6.2h-2.2v-1.2c0,0-1,1.4-3.1,1.4c-1.8,0-3.4-1.2-3.4-3.2c0-1.8,1.7-3.1,3.7-3.1
		c1.7,0,2.6,0.7,2.6,0.7v-0.5c0-1.2-1.2-1.6-2-1.6c-1.4,0-2.8,0.7-2.8,0.7l-0.8-2c0,0,1.8-0.9,3.7-0.9
		C198.5,66.1,200.1,67.5,200.1,69.7z M197.7,73v-1c0,0-0.9-0.5-2.2-0.5c-0.7,0-1.8,0.3-1.8,1.3c0,1,1,1.2,1.7,1.2
		C197,74.1,197.7,73,197.7,73z"/>
</g>
</svg>
